<?xml version="1.0"?>
<svg xmlns="http://www.w3.org/2000/svg" height="512px" viewBox="0 0 52 60" width="512px"><g><g id="Page-1" fill="none" fill-rule="evenodd"><g id="022---Coding" fill-rule="nonzero"><g id="Icons" transform="translate(1)"><path id="Shape" d="m45 25v21h-40v-21c0-1.1045695.8954305-2 2-2h36c1.1045695 0 2 .8954305 2 2z" fill="#02a9f4" data-original="#02A9F4"/><path id="Shape" d="m43 23h-3c1.1045695 0 2 .8954305 2 2v21h3v-21c0-1.1045695-.8954305-2-2-2z" fill="#0377bc" data-original="#0377BC"/><path id="Shape" d="m16 53h-16l5-7h40l5 7h-16z" fill="#7f8e94" data-original="#7F8E94"/><path id="Shape" d="m45 46h-3l5 7h3z" fill="#545c60" data-original="#545C60"/><path id="Shape" d="m16 53h-16v3c0 1.6568542 1.34314575 3 3 3h44c1.6568542 0 3-1.3431458 3-3v-3z" fill="#9e9e9e" data-original="#9E9E9E"/><path id="Shape" d="m47 53v3c0 1.6568542-1.3431458 3-3 3h3c1.6568542 0 3-1.3431458 3-3v-3z" fill="#707070" data-original="#707070"/><path id="Shape" d="m25 55h7l2-2-1-3h-16l-1 3 2 2z" fill="#607d8b" data-original="#607D8B"/><path id="Shape" d="m20.15 28.54c-8.14-1.58-14.15-7.04-14.15-13.54.09919442-3.5078181 1.72889035-6.79644214 4.46-9l.317-.266c4.0527083-3.17192241 9.0777758-4.84447176 14.223-4.734 10.49 0 19 6.27 19 14 0 6.5-6.01 11.96-14.15 13.54l-4.85 6.46z" fill="#e91e63" data-original="#E91E63"/><g fill="#f5f5f5"><path id="Shape" d="m19.759 8.349c-.3595533-.41915267-.9908049-.46750385-1.41-.108l-7 6c-.2214665.1899799-.3489094.4672128-.3489094.759s.1274429.5690201.3489094.759l7 6c.2690133.2485449.6523779.3301409.9992902.2126907.3469124-.1174502.6018621-.415153.66456-.7760016.0626979-.3608485-.0768884-.7271025-.3638502-.9546891l-6.112-5.241 6.114-5.241c.4191527-.35955332.4675039-.99080491.108-1.41z" data-original="#F5F5F5"/><path id="Shape" d="m30.241 21.651c.3595533.4191527.9908049.4675039 1.41.108l7-6c.2214665-.1899799.3489094-.4672128.3489094-.759s-.1274429-.5690201-.3489094-.759l-7-6c-.2690133-.24854487-.6523779-.33014085-.9992902-.21269068-.3469124.11745018-.6018621.41515297-.66456.77600154-.0626979.36084858.0768884.72710251.3638502.95468914l6.112 5.241-6.114 5.241c-.4191527.3595533-.4675039.9908049-.108 1.41z" data-original="#F5F5F5"/><path id="Shape" d="m23 23c.452867-.0000656.8491603-.3044648.966-.742l4-15c.1319833-.52956159-.1850027-1.06714268-.7122816-1.20796873-.527279-.14082606-1.070089.16712008-1.2197184.69196873l-4 15c-.1424065.5334961.1745438 1.0814441.708 1.224.0841762.0224004.1708944.0338284.258.034z" data-original="#F5F5F5"/></g><path id="Shape" d="m25 1c-.487 0-.963.031-1.441.058 9.759.586 17.441 6.6 17.441 13.942 0 6.5-6.01 11.96-14.15 13.54l-3.35 4.46 1.5 2 4.85-6.46c8.14-1.58 14.15-7.04 14.15-13.54 0-7.73-8.51-14-19-14z" fill="#ad1457" data-original="#AD1457"/></g><g id="Layer_2" fill="#000"><path id="Shape" d="m0 56c0 2.209139 1.790861 4 4 4h44c2.209139 0 4-1.790861 4-4v-3c-.0050467-.2074885-.0696084-.4091572-.186-.581l-4.814-6.74v-20.679c0-.5522847-.4477153-1-1-1s-1 .4477153-1 1v20h-38v-20c0-.5522847-.44771525-1-1-1s-1 .4477153-1 1v20.679l-4.814 6.74c-.11294917.1734973-.17719006.3741638-.186.581zm50 0c0 1.1045695-.8954305 2-2 2h-44c-1.1045695 0-2-.8954305-2-2v-2h14.586l1.707 1.707c.1874927.1875494.4418052.2929434.707.293h14c.2651948-.0000566.5195073-.1054506.707-.293l1.707-1.707h14.586zm-24-2h-6.586l-1.27-1.27.577-1.73h14.558l.577 1.73-1.27 1.27zm-19.485-7h38.97l3.572 5h-13.336l-.772-2.316c-.1360719-.4085428-.5183926-.6841037-.949-.684h-16c-.4306074-.0001037-.8129281.2754572-.949.684l-.772 2.316h-13.336z" data-original="#000" class="active-path" style="fill:#000000" data-old_color="#000"/><path id="Shape" d="m10.8 5.247c-2.94527127 2.39581594-4.69828077 5.9577121-4.8 9.753 0 6.737 5.973 12.623 14.569 14.432l3.431 4.568h-12c-.5522847 0-1 .4477153-1 1s.4477153 1 1 1h28c.5522847 0 1-.4477153 1-1s-.4477153-1-1-1h-12l3.429-4.568c8.598-1.809 14.571-7.695 14.571-14.432 0-8.271-8.972-15-20-15-3.5741705-.02071072-7.1118378.71934283-10.378 2.171-.3251117.14826521-.5464287.45871295-.5805831.81440055-.0341544.35568759.1240427.70257764.415.91000001s.6704714.24386467.9955831.09559944c3.0052831-1.33381118 6.2600956-2.01252207 9.548-1.991 9.925 0 18 5.832 18 13 0 5.87-5.486 11.034-13.34 12.559-.2387354.0581814-.4525306.1913653-.61.38l-4.05 5.395-4.05-5.4c-.1585658-.1873706-.3719159-.3202772-.61-.38-7.854-1.52-13.34-6.684-13.34-12.554.10682613-3.2173569 1.61036321-6.2284473 4.118-8.247.269021-.23543802.392002-.59651272.3226171-.94721075-.0693848-.35069803-.3205942-.63774001-.659-.75300001s-.7125961-.04122727-.9816171.19421076z" data-original="#000" class="active-path" style="fill:#000000" data-old_color="#000"/></g></g></g></g> </svg>
