<?xml version="1.0"?>
<svg xmlns="http://www.w3.org/2000/svg" id="Capa_1" enable-background="new 0 0 480 480" height="512px" viewBox="0 0 480 480" width="512px" class=""><g><path d="m472 336h-8v-248c-.025-22.081-17.919-39.975-40-40v-8c-.025-22.081-17.919-39.975-40-40h-240c-22.081.025-39.975 17.919-40 40v8c-22.081.025-39.975 17.919-40 40v96h16v-96c.015-13.249 10.751-23.985 24-24v112h16v-136c.015-13.249 10.751-23.985 24-24h240c13.249.015 23.985 10.751 24 24v272h16v-248c13.249.015 23.985 10.751 24 24v248h-112c-9.36-.022-18.34 3.703-24.937 10.343-3.629 3.64-8.563 5.677-13.703 5.657h-41.36v16h41.36c9.386.032 18.394-3.692 25.017-10.343 3.603-3.629 8.509-5.666 13.623-5.657h128v16c-.01 8.832-7.168 15.99-16 16h-192v16h192c17.665-.02 31.98-14.335 32-32v-24c0-4.418-3.582-8-8-8z" data-original="#000000" class="active-path" data-old_color="#000000" fill="#FFFFFF"/><path d="m104 256h16v56h-16z" data-original="#000000" class="active-path" data-old_color="#000000" fill="#FFFFFF"/><path d="m143.995 32h16v16h-16z" data-original="#000000" class="active-path" data-old_color="#000000" fill="#FFFFFF"/><path d="m175.995 32h16v16h-16z" data-original="#000000" class="active-path" data-old_color="#000000" fill="#FFFFFF"/><path d="m207.995 32h16v16h-16z" data-original="#000000" class="active-path" data-old_color="#000000" fill="#FFFFFF"/><path d="m144 64h240v16h-240z" data-original="#000000" class="active-path" data-old_color="#000000" fill="#FFFFFF"/><path d="m239.517 300.813c-1.692-.436-3.4-.929-5.072-1.467l-4.892 15.234c1.969.632 3.978 1.213 5.924 1.715 43.278 11.408 89.191-4.069 116.731-39.35 38.085-48.728 29.456-119.104-19.272-157.188-11.971-9.356-25.721-16.179-40.413-20.052-47.021-12.389-96.663 6.993-122.85 47.965-6.818 10.577-11.78 22.241-14.673 34.488l15.57 3.683c2.146-9.075 5.622-17.783 10.317-25.841h24.745c-3.769 15.721-5.66 31.834-5.632 48 0 5.54.223 11.137.663 16.638l15.949-1.276c-.195-2.438-.341-4.9-.443-7.362h39.831v48h-24v16h24v23.642c-5.566-.461-11.082-1.407-16.483-2.829zm87.903-20.813c-5.563 4.902-11.673 9.146-18.209 12.647 2.011-4.093 3.881-8.3 5.566-12.647zm14.513-16h-21.743c4.48-15.632 7.048-31.75 7.649-48h31.837c-1.377 17.329-7.518 33.941-17.743 48zm-99.523-149.528c4.473-1.03 9.015-1.737 13.59-2.114v31.642h-28.727c3.87-10.402 8.95-20.313 15.137-29.528zm29.59-2.113c4.575.378 9.117 1.084 13.59 2.114 6.187 9.214 11.268 19.125 15.138 29.527h-28.728zm33.861 47.641c3.437 13.077 5.439 26.489 5.97 40h-39.831v-40zm53.8 40h-31.81c-.493-13.482-2.328-26.882-5.479-40h24.738c7.106 12.234 11.392 25.899 12.546 40zm-24.144-56h-17.788c-2.407-7.101-5.276-14.037-8.589-20.763 9.952 5.303 18.882 12.333 26.372 20.763zm-116.657-20.762c-3.312 6.726-6.181 13.661-8.588 20.762h-17.787c7.491-8.43 16.422-15.46 26.375-20.762zm-2.691 76.762c.53-13.511 2.531-26.923 5.969-40h33.862v40zm55.831 16h39.833c-.642 16.301-3.458 32.444-8.373 48h-31.46zm25.452 64c-3.277 7.523-7.241 14.728-11.842 21.523-4.48 1.034-9.028 1.742-13.61 2.12v-23.643z" data-original="#000000" class="active-path" data-old_color="#000000" fill="#FFFFFF"/><path d="m216 328.159v-40.159c0-53.019-42.981-96-96-96s-96 42.981-96 96v40.159c-13.645 1.497-23.981 13.014-24 26.741v98.2c.018 14.849 12.051 26.882 26.9 26.9h186.2c14.849-.018 26.882-12.051 26.9-26.9v-98.2c-.019-13.727-10.355-25.244-24-26.741zm-96-120.159c44.162.05 79.95 35.838 80 80v40h-16v-40c0-35.346-28.654-64-64-64s-64 28.654-64 64v40h-16v-40c.05-44.162 35.838-79.95 80-80zm48 120h-96v-40c0-26.51 21.49-48 48-48s48 21.49 48 48zm56 125.1c-.007 6.017-4.883 10.893-10.9 10.9h-186.2c-6.017-.007-10.893-4.883-10.9-10.9v-98.2c.007-6.017 4.883-10.893 10.9-10.9h186.2c6.017.007 10.893 4.883 10.9 10.9z" data-original="#000000" class="active-path" data-old_color="#000000" fill="#FFFFFF"/><path d="m120 376c-13.255.005-23.996 10.755-23.99 24.01.004 10.163 6.41 19.222 15.99 22.614v17.376h16v-17.376c12.495-4.424 19.038-18.139 14.614-30.634-3.392-9.58-12.451-15.986-22.614-15.99zm0 32c-4.418 0-8-3.582-8-8s3.582-8 8-8 8 3.582 8 8c-.005 4.416-3.584 7.995-8 8z" data-original="#000000" class="active-path" data-old_color="#000000" fill="#FFFFFF"/></g> </svg>
