<?xml version="1.0"?>
<svg xmlns="http://www.w3.org/2000/svg" xmlns:xlink="http://www.w3.org/1999/xlink" version="1.1" id="Layer_1" x="0px" y="0px" viewBox="0 0 512 512" style="enable-background:new 0 0 512 512;" xml:space="preserve" width="512px" height="512px"><g><g>
	<g>
		<path d="M491.672,192.8c-13.747-51.324-44.189-97.129-86.583-129.905c-25.802-19.947-54.662-34.227-85.889-42.557V0H192.8v20.324    c-41.238,11.029-78.869,32.748-109.298,63.177C53.072,113.93,31.353,151.562,20.324,192.8H0v126.4h20.331    c22.43,83.731,88.689,150.036,172.469,172.475V512h126.4v-20.324c41.061-10.983,78.563-32.573,108.925-62.804    c30.613-30.482,52.474-68.26,63.551-109.671H512V192.8H491.672z M319.201,51.537c24.403,7.506,47.066,19.264,67.54,35.092    c35.045,27.094,60.775,64.32,73.715,106.17h-57.882c-10.62-24.618-27.272-46.181-48.604-62.79    c-10.504-8.064-22.716-15.403-34.769-20.602V51.537z M289.2,30v78.45h-66.4V30H289.2z M192.8,51.546v57.875    c-37.206,16.098-67.258,46.128-83.371,83.379H51.546C72.327,125.642,125.643,72.326,192.8,51.546z M30,222.8h78.45v66.4H30V222.8z     M192.8,460.456C125.578,439.669,72.327,386.386,51.547,319.2h57.883c16.104,37.208,46.184,67.281,83.37,83.378V460.456z     M289.2,482h-66.4v-78.45h66.4V482z M310.601,373.55h-109.22c-27.592-12.88-50.048-35.336-62.93-62.944V201.39    c12.886-27.634,35.32-50.062,62.921-62.94H310.6c8.672,4.033,17.014,9.1,24.655,15c16.514,12.783,29.588,29.206,38.296,47.934    v109.214C360.675,338.157,338.172,360.67,310.601,373.55z M406.958,407.613c-24.708,24.603-54.798,42.675-87.757,52.847v-57.892    c37.142-16.09,67.281-46.245,83.368-83.368h57.897C450.2,352.462,431.888,382.79,406.958,407.613z M482,289.2h-78.45v-66.4H482    V289.2z" data-original="#000000" class="active-path" fill="#000000"/>
	</g>
</g></g> </svg>
