<?xml version="1.0"?>
<svg xmlns="http://www.w3.org/2000/svg" id="Capa_1" enable-background="new 0 0 512 512" height="512px" viewBox="0 0 512 512" width="512px" class=""><g><g><g><g><path d="m187.829 262.362v163.334c0 11.908 9.712 21.561 21.693 21.561h130.916l80.484 42.773v-42.773h59.386c11.98 0 21.693-9.653 21.693-21.561v-203.286c0-11.908-9.712-21.561-21.693-21.561h-144.137" fill="#ff7d97" data-original="#FF7D97"/></g><g><g><g><path d="m127.354 21.969h-95.661c-11.981 0-21.693 9.653-21.693 21.562v193.286c0 11.908 9.712 21.562 21.693 21.562h59.386v42.773l80.484-42.773h140.916c11.981 0 21.693-9.653 21.693-21.562v-193.286c0-11.908-9.712-21.562-21.693-21.562h-94.712" fill="#ccf5fc" data-original="#CCF5FC"/></g></g></g></g><g><g><path d="m172.74 31.97c-4.179 0-7.998-2.711-9.405-6.636-1.387-3.868-.2-8.332 2.939-10.987 3.284-2.778 8.088-3.141 11.748-.873 3.497 2.167 5.331 6.414 4.527 10.446-.919 4.615-5.102 8.05-9.809 8.05z" data-original="#000000" class="active-path" style="fill:#000000" data-old_color="#000000"/></g><path d="m480.308 190.849h-136.137v-147.319c0-17.403-14.217-31.562-31.693-31.562h-94.712c-5.523 0-10 4.478-10 10s4.477 10 10 10h94.712c6.447 0 11.693 5.187 11.693 11.562v193.286c0 6.375-5.246 11.562-11.693 11.562h-140.916c-1.636 0-3.248.401-4.693 1.17l-65.79 34.965v-26.135c0-5.522-4.477-10-10-10h-59.386c-6.447 0-11.693-5.187-11.693-11.562v-193.286c0-6.375 5.246-11.562 11.693-11.562h95.661c5.523 0 10-4.478 10-10s-4.477-10-10-10h-95.661c-17.476.001-31.693 14.159-31.693 31.562v193.286c0 17.403 14.217 31.561 31.693 31.561h49.386v32.773c0 3.51 1.84 6.763 4.849 8.571 1.582.951 3.365 1.429 5.152 1.429 1.61 0 3.223-.389 4.692-1.17l78.283-41.604h3.774v157.318c0 17.403 14.217 31.561 31.693 31.561h128.424l78.283 41.603c1.47.781 3.082 1.17 4.692 1.17 1.786 0 3.57-.479 5.152-1.429 3.008-1.809 4.849-5.061 4.849-8.571v-32.773h49.386c17.475 0 31.692-14.158 31.692-31.561v-203.284c0-17.403-14.217-31.561-31.692-31.561zm11.692 234.847c0 6.375-5.245 11.561-11.692 11.561h-59.386c-5.523 0-10 4.478-10 10v26.135l-65.791-34.965c-1.445-.768-3.057-1.17-4.693-1.17h-130.917c-6.447 0-11.693-5.186-11.693-11.561v-157.318h114.65c17.476 0 31.693-14.158 31.693-31.561v-25.968h136.136c6.447 0 11.692 5.187 11.692 11.562v203.285z" data-original="#000000" class="active-path" style="fill:#000000" data-old_color="#000000"/><path d="m399.271 400.162-42.415-112.393c-.035-.092-.071-.184-.109-.276-1.949-4.735-6.516-7.793-11.636-7.793-.004 0-.009 0-.014.001-5.126.005-9.692 3.073-11.633 7.816-.031.076-.061.152-.09.229l-42.804 112.388c-1.966 5.161.625 10.939 5.786 12.904 5.162 1.967 10.938-.625 12.904-5.785l8.207-21.55h54.97l8.122 21.521c1.511 4.004 5.316 6.472 9.357 6.472 1.173 0 2.367-.208 3.529-.648 5.167-1.948 7.776-7.718 5.826-12.886zm-74.187-34.459 19.994-52.497 19.811 52.497z" data-original="#000000" class="active-path" style="fill:#000000" data-old_color="#000000"/><path d="m236.374 186.627-10.231-10.231c7.999-11.035 12.72-24.594 12.72-39.234 0-36.942-30.055-66.997-66.997-66.997s-66.997 30.055-66.997 66.997c0 36.941 30.055 66.996 66.997 66.996 15.102 0 29.052-5.023 40.269-13.485l10.096 10.096c1.953 1.952 4.512 2.929 7.071 2.929s5.119-.977 7.071-2.929c3.906-3.905 3.906-10.237.001-14.142zm-64.508-2.469c-25.914 0-46.997-21.082-46.997-46.996s21.083-46.997 46.997-46.997 46.997 21.083 46.997 46.997c0 9.113-2.607 17.628-7.115 24.839l-11.842-11.842c-3.905-3.904-10.237-3.904-14.143 0-3.905 3.905-3.905 10.237 0 14.143l12.036 12.036c-7.437 4.939-16.355 7.82-25.933 7.82z" data-original="#000000" class="active-path" style="fill:#000000" data-old_color="#000000"/></g></g></g> </svg>
