<?xml version="1.0" encoding="iso-8859-1"?>
<!-- Generator: Adobe Illustrator 19.0.0, SVG Export Plug-In . SVG Version: 6.00 Build 0)  -->
<svg version="1.1" id="Capa_1" xmlns="http://www.w3.org/2000/svg" xmlns:xlink="http://www.w3.org/1999/xlink" x="0px" y="0px"
	 viewBox="0 0 512 512" style="enable-background:new 0 0 512 512;" xml:space="preserve">
<g>
	<g>
		<path d="M256,0C115.39,0,0,115.39,0,256c0,140.041,115.292,256,256,256c143.351,0,256-118.484,256-256C512,115.39,396.61,0,256,0z
			 M256,151c40.518,0,73.638,32.3,74.956,72.51c-1.274,40.913-32.593,75.366-70.913,77.373
			c-20.684,1.216-40.591-6.167-55.664-20.464C189.306,266.107,181,246.786,181,226C181,184.647,214.647,151,256,151z M391,436.575
			c-9.483,7.147-19.438,13.674-30,19.274V407c0-8.291-6.709-15-15-15c-8.291,0-15,6.709-15,15v61.875
			c-48.124,17.091-99.587,17.904-150,0V407c0-8.291-6.709-15-15-15s-15,6.709-15,15v48.849c-10.562-5.599-20.517-12.127-30-19.274
			V407c0-41.353,33.647-75,75-75h120c41.353,0,75,33.647,75,75V436.575z"/>
	</g>
</g>
<g>
</g>
<g>
</g>
<g>
</g>
<g>
</g>
<g>
</g>
<g>
</g>
<g>
</g>
<g>
</g>
<g>
</g>
<g>
</g>
<g>
</g>
<g>
</g>
<g>
</g>
<g>
</g>
<g>
</g>
</svg>
